<svg width="56" height="70" fill="none" xmlns="http://www.w3.org/2000/svg"><g filter="url(#prefix__filter0_d_4019_577)"><g filter="url(#prefix__filter1_d_4019_577)"><path d="M26.342 6.203a17.197 17.197 0 00-9.421 2.75 16.632 16.632 0 00-6.266 7.408 16.2 16.2 0 00-.995 9.563 16.428 16.428 0 004.612 8.49 17.04 17.04 0 008.661 4.549c3.284.644 6.69.321 9.786-.928a16.843 16.843 0 007.605-6.092 16.281 16.281 0 002.857-9.198c0-4.374-1.771-8.57-4.927-11.67-3.156-3.1-7.439-4.851-11.912-4.872zm0 25.364a9.173 9.173 0 01-5.035-1.45 8.872 8.872 0 01-3.358-3.942 8.64 8.64 0 01-.546-5.104 8.761 8.761 0 012.451-4.537 9.087 9.087 0 014.62-2.436 9.215 9.215 0 015.223.49 8.983 8.983 0 014.063 3.248 8.683 8.683 0 01-1.085 11.127 9.126 9.126 0 01-6.333 2.615v-.011z" fill="#1C1C1C"/></g><path d="M26.792 0C14.325 0 3.892 9.761 3.037 22.2c-.322 5.728 1.462 11.38 5.03 15.937l16.795 21.978a2.4 2.4 0 00.852.697 2.46 2.46 0 002.162 0c.336-.165.628-.403.852-.697l16.788-21.964c3.568-4.558 5.352-10.21 5.03-15.937C49.692 9.76 39.258 0 26.792 0zm-1.058 39.286c-2.873-3.651-15.573-12.46-15.332-17.058.6-8.746 5.295-15.508 16.39-15.508s14.733 7.266 15.332 16.025c.245 4.605-13.511 12.884-16.39 16.541z" fill="#1C1C1C"/></g><g filter="url(#prefix__filter2_d_4019_577)"><ellipse cx="26.263" cy="22.745" rx="3.172" ry="3.102" fill="#1C1C1C"/></g><defs><filter id="prefix__filter0_d_4019_577" x="0" y="0" width="55.584" height="69.061" filterUnits="userSpaceOnUse" color-interpolation-filters="sRGB"><feFlood flood-opacity="0" result="BackgroundImageFix"/><feColorMatrix in="SourceAlpha" values="0 0 0 0 0 0 0 0 0 0 0 0 0 0 0 0 0 0 127 0" result="hardAlpha"/><feOffset dx="1" dy="4"/><feGaussianBlur stdDeviation="2"/><feComposite in2="hardAlpha" operator="out"/><feColorMatrix values="0 0 0 0 0 0 0 0 0 0 0 0 0 0 0 0 0 0 0.35 0"/><feBlend in2="BackgroundImageFix" result="effect1_dropShadow_4019_577"/><feBlend in="SourceGraphic" in2="effect1_dropShadow_4019_577" result="shape"/></filter><filter id="prefix__filter1_d_4019_577" x="6.344" y="6.203" width="41.837" height="41.083" filterUnits="userSpaceOnUse" color-interpolation-filters="sRGB"><feFlood flood-opacity="0" result="BackgroundImageFix"/><feColorMatrix in="SourceAlpha" values="0 0 0 0 0 0 0 0 0 0 0 0 0 0 0 0 0 0 127 0" result="hardAlpha"/><feOffset dx="1" dy="4"/><feGaussianBlur stdDeviation="2"/><feComposite in2="hardAlpha" operator="out"/><feColorMatrix values="0 0 0 0 0 0 0 0 0 0 0 0 0 0 0 0 0 0 0.35 0"/><feBlend in2="BackgroundImageFix" result="effect1_dropShadow_4019_577"/><feBlend in="SourceGraphic" in2="effect1_dropShadow_4019_577" result="shape"/></filter><filter id="prefix__filter2_d_4019_577" x="20.091" y="17.643" width="14.344" height="14.203" filterUnits="userSpaceOnUse" color-interpolation-filters="sRGB"><feFlood flood-opacity="0" result="BackgroundImageFix"/><feColorMatrix in="SourceAlpha" values="0 0 0 0 0 0 0 0 0 0 0 0 0 0 0 0 0 0 127 0" result="hardAlpha"/><feOffset dx="1" dy="2"/><feGaussianBlur stdDeviation="2"/><feComposite in2="hardAlpha" operator="out"/><feColorMatrix values="0 0 0 0 0 0 0 0 0 0 0 0 0 0 0 0 0 0 0.3 0"/><feBlend in2="BackgroundImageFix" result="effect1_dropShadow_4019_577"/><feBlend in="SourceGraphic" in2="effect1_dropShadow_4019_577" result="shape"/></filter></defs></svg>
